<?xml version="1.0" encoding="utf-8"?>
<!-- Generator: Adobe Illustrator 23.0.1, SVG Export Plug-In . SVG Version: 6.00 Build 0)  -->
<svg version="1.1" id="Layer_1" xmlns="http://www.w3.org/2000/svg" xmlns:xlink="http://www.w3.org/1999/xlink" x="0px" y="0px"
	 viewBox="0 0 105.7 19.4" style="enable-background:new 0 0 105.7 19.4;" xml:space="preserve">
<g>
	<path d="M9,15.5H7.6c-0.2,0-0.3,0-0.4-0.1C7.1,15.3,7,15.2,7,15.1l-0.6-1.7H2.9l-0.6,1.7c0,0.1-0.1,0.2-0.2,0.3
		c-0.1,0.1-0.2,0.1-0.4,0.1H0.4l3.4-8.7h1.8L9,15.5z M6,12.2L5,9.6C5,9.4,4.9,9.2,4.9,9.1S4.7,8.7,4.7,8.4C4.6,8.7,4.6,8.9,4.5,9.1
		S4.4,9.4,4.3,9.6l-0.9,2.7H6z"/>
	<path d="M19.7,6.8v8.7h-0.9c-0.1,0-0.3,0-0.4-0.1c-0.1,0-0.2-0.1-0.3-0.2l-4.3-5.5c0,0.1,0,0.3,0,0.4c0,0.1,0,0.3,0,0.4v5h-1.6V6.8
		h0.9c0.1,0,0.1,0,0.2,0c0.1,0,0.1,0,0.1,0c0,0,0.1,0.1,0.1,0.1c0,0,0.1,0.1,0.1,0.1l4.4,5.5c0-0.2,0-0.3,0-0.4c0-0.1,0-0.3,0-0.4
		v-5H19.7z"/>
	<path d="M25.7,15.5h-1.8V6.8h1.8V15.5z"/>
	<path d="M37.5,15.5h-1.4c-0.2,0-0.3,0-0.4-0.1c-0.1-0.1-0.2-0.2-0.2-0.3L35,13.5h-3.5l-0.6,1.7c0,0.1-0.1,0.2-0.2,0.3
		c-0.1,0.1-0.2,0.1-0.4,0.1h-1.4l3.4-8.7h1.8L37.5,15.5z M34.5,12.2l-0.9-2.7c-0.1-0.1-0.1-0.3-0.2-0.5s-0.1-0.4-0.2-0.6
		c-0.1,0.2-0.1,0.4-0.2,0.6s-0.1,0.4-0.2,0.5l-0.9,2.7H34.5z"/>
	<path d="M49.1,14c0.3,0,0.6,0,0.8-0.1c0.2-0.1,0.4-0.2,0.6-0.4c0.2-0.2,0.3-0.4,0.4-0.7c0.1-0.3,0.1-0.5,0.1-0.9V6.7h1.8v5.2
		c0,0.5-0.1,1-0.3,1.5c-0.2,0.4-0.4,0.8-0.7,1.1c-0.3,0.3-0.7,0.6-1.2,0.8c-0.5,0.2-1,0.3-1.5,0.3s-1.1-0.1-1.5-0.3
		c-0.5-0.2-0.8-0.4-1.2-0.8c-0.3-0.3-0.6-0.7-0.7-1.1s-0.3-0.9-0.3-1.5V6.7h1.8v5.2c0,0.3,0,0.6,0.1,0.9c0.1,0.3,0.2,0.5,0.4,0.7
		c0.2,0.2,0.4,0.3,0.6,0.4S48.9,14,49.1,14z"/>
	<path d="M59.9,6.7c0.6,0,1.1,0.1,1.5,0.2c0.4,0.1,0.8,0.3,1.1,0.6c0.3,0.2,0.5,0.5,0.6,0.9c0.1,0.3,0.2,0.7,0.2,1.1
		c0,0.4-0.1,0.8-0.2,1.2c-0.1,0.4-0.4,0.7-0.6,0.9c-0.3,0.3-0.6,0.5-1.1,0.6c-0.4,0.1-0.9,0.2-1.5,0.2h-1.1v3h-1.8V6.7H59.9z
		 M59.9,11.1c0.6,0,1-0.1,1.2-0.4c0.3-0.3,0.4-0.6,0.4-1.1c0-0.2,0-0.4-0.1-0.6c-0.1-0.2-0.2-0.3-0.3-0.5s-0.3-0.2-0.5-0.3
		c-0.2-0.1-0.4-0.1-0.7-0.1h-1.1v3H59.9z"/>
	<path d="M71.6,8.5c-0.1,0.1-0.1,0.2-0.2,0.2s-0.1,0.1-0.2,0.1c-0.1,0-0.2,0-0.3-0.1c-0.1-0.1-0.2-0.1-0.4-0.2
		c-0.1-0.1-0.3-0.1-0.5-0.2c-0.2-0.1-0.4-0.1-0.6-0.1c-0.4,0-0.7,0.1-0.9,0.3s-0.3,0.4-0.3,0.7c0,0.2,0.1,0.4,0.2,0.5
		c0.1,0.1,0.3,0.2,0.5,0.3c0.2,0.1,0.4,0.2,0.6,0.2c0.2,0.1,0.5,0.2,0.7,0.2s0.5,0.2,0.7,0.3c0.2,0.1,0.4,0.3,0.6,0.4
		c0.2,0.2,0.3,0.4,0.4,0.6c0.1,0.3,0.2,0.6,0.2,0.9c0,0.4-0.1,0.8-0.2,1.1c-0.1,0.3-0.3,0.6-0.6,0.9c-0.3,0.3-0.6,0.5-1,0.6
		c-0.4,0.1-0.8,0.2-1.3,0.2c-0.3,0-0.6,0-0.8-0.1c-0.3-0.1-0.5-0.1-0.8-0.2c-0.3-0.1-0.5-0.2-0.7-0.4s-0.4-0.3-0.6-0.5l0.5-0.9
		c0-0.1,0.1-0.1,0.2-0.2c0.1,0,0.1-0.1,0.2-0.1c0.1,0,0.2,0,0.3,0.1s0.3,0.2,0.4,0.3c0.2,0.1,0.3,0.2,0.5,0.3s0.5,0.1,0.7,0.1
		c0.4,0,0.7-0.1,1-0.3s0.3-0.5,0.3-0.9c0-0.2-0.1-0.4-0.2-0.5c-0.1-0.1-0.3-0.2-0.4-0.3s-0.4-0.2-0.6-0.2c-0.2-0.1-0.5-0.1-0.7-0.2
		s-0.5-0.2-0.7-0.3c-0.2-0.1-0.4-0.3-0.6-0.4s-0.3-0.4-0.4-0.7c-0.1-0.3-0.2-0.6-0.2-1c0-0.3,0.1-0.6,0.2-0.9
		C66.8,8,67,7.7,67.3,7.5c0.2-0.2,0.6-0.4,0.9-0.6c0.4-0.1,0.8-0.2,1.2-0.2c0.5,0,1,0.1,1.5,0.2c0.4,0.2,0.8,0.4,1.1,0.7L71.6,8.5z"
		/>
	<path d="M82,8.3h-2.5v7.3h-1.8V8.3h-2.5V6.8H82V8.3z"/>
	<path d="M87.3,15.5h-1.8V6.8h1.8V15.5z"/>
	<path d="M96.7,14.1v1.5h-5.2V6.8h1.8v7.2H96.7z"/>
	<path d="M105.4,14.1v1.5h-5.2V6.8h1.8v7.2H105.4z"/>
</g>
</svg>
